<mxfile host="app.diagrams.net" agent="Mozilla/5.0 (Windows NT 10.0; Win64; x64) AppleWebKit/537.36 (KHTML, like Gecko) Chrome/128.0.0.0 Safari/537.36" version="24.7.7">
  <diagram name="หน้า-1" id="R-3iYolLFYjITiO-tWZA">
    <mxGraphModel dx="1434" dy="818" grid="1" gridSize="10" guides="1" tooltips="1" connect="1" arrows="1" fold="1" page="1" pageScale="1" pageWidth="827" pageHeight="1169" math="0" shadow="0">
      <root>
        <mxCell id="0" />
        <mxCell id="1" parent="0" />
        <mxCell id="jALa5aV9jUNKfT0RSYsS-1" value="ระบบให้บริการเช่ารถ" style="swimlane;whiteSpace=wrap;html=1;" vertex="1" parent="1">
          <mxGeometry x="190" y="305" width="340" height="235" as="geometry" />
        </mxCell>
        <mxCell id="jALa5aV9jUNKfT0RSYsS-6" value="จองรถ" style="ellipse;whiteSpace=wrap;html=1;" vertex="1" parent="jALa5aV9jUNKfT0RSYsS-1">
          <mxGeometry x="50" y="30" width="100" height="50" as="geometry" />
        </mxCell>
        <mxCell id="jALa5aV9jUNKfT0RSYsS-8" value="ส่งมอบรถ" style="ellipse;whiteSpace=wrap;html=1;" vertex="1" parent="jALa5aV9jUNKfT0RSYsS-1">
          <mxGeometry x="50" y="90" width="100" height="50" as="geometry" />
        </mxCell>
        <mxCell id="jALa5aV9jUNKfT0RSYsS-10" value="&amp;lt;&amp;lt;include&amp;gt;&amp;gt;" style="html=1;verticalAlign=bottom;endArrow=open;dashed=1;endSize=8;curved=0;rounded=0;" edge="1" parent="jALa5aV9jUNKfT0RSYsS-1">
          <mxGeometry relative="1" as="geometry">
            <mxPoint x="150" y="114.5" as="sourcePoint" />
            <mxPoint x="220" y="114.5" as="targetPoint" />
            <Array as="points">
              <mxPoint x="200" y="115" />
            </Array>
          </mxGeometry>
        </mxCell>
        <mxCell id="jALa5aV9jUNKfT0RSYsS-11" value="ประกันภัยรถเช่า" style="ellipse;whiteSpace=wrap;html=1;" vertex="1" parent="jALa5aV9jUNKfT0RSYsS-1">
          <mxGeometry x="220" y="90" width="100" height="50" as="geometry" />
        </mxCell>
        <mxCell id="jALa5aV9jUNKfT0RSYsS-12" value="รับคืนรถ" style="ellipse;whiteSpace=wrap;html=1;" vertex="1" parent="jALa5aV9jUNKfT0RSYsS-1">
          <mxGeometry x="50" y="155" width="100" height="50" as="geometry" />
        </mxCell>
        <mxCell id="jALa5aV9jUNKfT0RSYsS-2" value="พนักงานรับจอง" style="shape=umlActor;verticalLabelPosition=bottom;verticalAlign=top;html=1;outlineConnect=0;" vertex="1" parent="1">
          <mxGeometry x="100" y="390" width="30" height="60" as="geometry" />
        </mxCell>
        <mxCell id="jALa5aV9jUNKfT0RSYsS-7" value="" style="endArrow=none;html=1;rounded=0;entryX=0.5;entryY=0.5;entryDx=0;entryDy=0;entryPerimeter=0;exitX=0;exitY=0.5;exitDx=0;exitDy=0;" edge="1" parent="1" source="jALa5aV9jUNKfT0RSYsS-6" target="jALa5aV9jUNKfT0RSYsS-2">
          <mxGeometry width="50" height="50" relative="1" as="geometry">
            <mxPoint x="260" y="450" as="sourcePoint" />
            <mxPoint x="310" y="400" as="targetPoint" />
          </mxGeometry>
        </mxCell>
        <mxCell id="jALa5aV9jUNKfT0RSYsS-9" value="" style="endArrow=none;html=1;rounded=0;entryX=0.5;entryY=0.5;entryDx=0;entryDy=0;entryPerimeter=0;exitX=0;exitY=0.5;exitDx=0;exitDy=0;" edge="1" parent="1" source="jALa5aV9jUNKfT0RSYsS-8" target="jALa5aV9jUNKfT0RSYsS-2">
          <mxGeometry width="50" height="50" relative="1" as="geometry">
            <mxPoint x="250" y="385" as="sourcePoint" />
            <mxPoint x="125" y="430" as="targetPoint" />
          </mxGeometry>
        </mxCell>
        <mxCell id="jALa5aV9jUNKfT0RSYsS-13" value="" style="endArrow=none;html=1;rounded=0;entryX=0.5;entryY=0.5;entryDx=0;entryDy=0;entryPerimeter=0;exitX=0;exitY=0.5;exitDx=0;exitDy=0;" edge="1" parent="1" source="jALa5aV9jUNKfT0RSYsS-12" target="jALa5aV9jUNKfT0RSYsS-2">
          <mxGeometry width="50" height="50" relative="1" as="geometry">
            <mxPoint x="250" y="370" as="sourcePoint" />
            <mxPoint x="125" y="430" as="targetPoint" />
          </mxGeometry>
        </mxCell>
      </root>
    </mxGraphModel>
  </diagram>
</mxfile>
